<svg width="190" height="105" viewBox="0 0 190 105" fill="none" xmlns="http://www.w3.org/2000/svg">
<g clip-path="url(#clip0_183_1726)">
<path d="M126.139 13.3642C126.126 13.2868 126.114 13.2095 126.101 13.1321C125.909 11.9934 125.569 10.8934 125.079 9.8277C125.015 9.69449 124.952 9.56129 124.883 9.42378C124.751 9.15736 124.607 8.89095 124.454 8.62883C123.457 6.9186 122.159 5.50058 120.559 4.37905C120.193 4.12122 119.81 3.88059 119.409 3.65285C117.311 2.46686 115.178 1.70199 113.016 1.37541C112.978 1.37111 112.935 1.36252 112.897 1.35822C110.696 1.04024 107.206 0.876953 102.43 0.876953L97.6031 0.919924L78.0825 0.9543H76.0776V5.39315H77.146C79.7553 5.39315 81.4835 5.87872 82.3305 6.84985C83.1733 7.82528 83.5947 9.54839 83.5947 12.0235V13.8111H97.6031V5.50487C98.5012 5.47909 99.2248 5.4662 99.7782 5.4662C104.133 5.4662 107.197 6.1967 108.981 7.66199C110.471 8.89095 111.339 10.9406 111.577 13.8111H126.199C126.182 13.6607 126.16 13.5146 126.139 13.3642ZM131.2 49.1586C129.855 48.1316 127.599 45.1279 124.432 40.1477C120.371 33.7021 117.375 29.8691 115.451 28.6445C116.302 28.3652 117.102 28.0558 117.852 27.7206C118.009 27.6519 118.162 27.5788 118.316 27.5058C118.494 27.4241 118.669 27.3382 118.839 27.2479C119.009 27.162 119.175 27.0718 119.341 26.9815C119.486 26.9042 119.627 26.8225 119.763 26.7409C120.623 26.2424 121.397 25.6881 122.087 25.0908C122.219 24.9748 122.347 24.8631 122.47 24.7428C122.759 24.472 123.036 24.1884 123.291 23.8962C123.377 23.7974 123.462 23.6986 123.543 23.5997C123.568 23.574 123.594 23.5439 123.615 23.5138C123.692 23.4236 123.764 23.3333 123.832 23.2388C123.875 23.1872 123.913 23.1357 123.951 23.0841C124.041 22.9595 124.13 22.8349 124.215 22.706C124.287 22.6028 124.36 22.4954 124.424 22.388C124.462 22.3278 124.5 22.2677 124.539 22.2032C124.624 22.0657 124.7 21.9282 124.777 21.7907C125.011 21.3696 125.215 20.9356 125.39 20.4844C125.441 20.3555 125.492 20.2223 125.535 20.0933C125.552 20.059 125.564 20.0203 125.573 19.9859C125.607 19.8957 125.637 19.8054 125.662 19.7152C125.696 19.6207 125.726 19.5261 125.752 19.4316C125.79 19.3027 125.824 19.1738 125.858 19.0449C125.888 18.9245 125.918 18.8042 125.943 18.6839C125.965 18.5937 125.986 18.5034 126.003 18.4089C126.016 18.3487 126.028 18.2886 126.037 18.2284C126.067 18.0866 126.092 17.9448 126.114 17.7987C126.118 17.7729 126.122 17.7429 126.126 17.7128C126.143 17.6054 126.156 17.4979 126.169 17.3905C126.186 17.296 126.194 17.1971 126.207 17.0983V17.0854H111.599C111.454 19.0492 111.024 20.6563 110.305 21.9024C109.407 23.4622 108.181 24.5408 106.627 25.1381C105.069 25.7397 102.06 26.0147 97.6031 25.9588V17.0854H83.5947V44.0623C83.5947 46.4858 83.1946 48.196 82.3901 49.1972C81.5814 50.1942 79.8362 50.6926 77.146 50.6926H76.0776V55.1272H105.005V50.6926H104.056C101.443 50.6926 99.7143 50.2113 98.8715 49.2359C98.0245 48.2648 97.6031 46.5417 97.6031 44.0623V31.2399C100.557 31.2657 102.477 31.4333 103.362 31.7383C104.243 32.0434 105.107 32.7439 105.954 33.8353C106.797 34.9268 108.262 37.3675 110.347 41.1489C114.489 48.63 117.324 53.2923 118.856 55.1272H135.631V50.6926C134.022 50.6926 132.545 50.1813 131.2 49.1586Z" fill="white"/>
<path d="M24.3433 63.6602L28.0976 72.4004C28.2466 72.7398 28.4254 72.989 28.6339 73.1437C28.8425 73.2984 29.1277 73.3801 29.4852 73.393V73.8613H25.3862V73.393H25.7139C26.2886 73.393 26.578 73.2383 26.578 72.9246C26.578 72.7742 26.5312 72.598 26.4418 72.3961L25.6373 70.4538H21.6745L20.8998 72.3961C20.8317 72.555 20.7933 72.6925 20.7933 72.8043C20.7933 73.1953 21.0998 73.393 21.717 73.393H22.032V73.8613H18.6055V73.393C19.0524 73.3844 19.3929 73.3113 19.627 73.1738C19.8612 73.0363 20.057 72.7785 20.2145 72.4004L23.79 63.6602H24.3433ZM25.3564 69.8307L24.0581 66.6423C23.841 66.0622 23.7006 65.6583 23.641 65.4391C23.6325 65.4692 23.6154 65.5251 23.5899 65.611C23.5644 65.697 23.5431 65.7657 23.5218 65.813L21.9128 69.8307H25.3564Z" fill="white"/>
<path d="M35.0402 68.3396V65.495C35.0402 64.7043 34.7082 64.3004 34.0399 64.2918V63.8235C34.8444 63.7117 35.5893 63.5742 36.2746 63.4023V72.1898C36.2746 72.9805 36.6109 73.3844 37.2877 73.393V73.8614C36.7513 73.8614 36.1512 73.8871 35.4829 73.9344C35.3722 73.7238 35.3041 73.5176 35.2743 73.3156C34.5379 73.7883 33.8228 74.0246 33.129 74.0246C32.2053 74.0246 31.4562 73.7067 30.8773 73.075C30.3026 72.4433 30.0132 71.657 30.0132 70.7116C30.0132 69.7663 30.2771 68.9885 30.8049 68.3654C31.3327 67.7424 32.0563 67.433 32.98 67.433C33.9037 67.433 34.5592 67.7338 35.0359 68.3354L35.0402 68.3396ZM35.0402 72.28V69.1948C34.7422 68.4729 34.1123 68.1119 33.146 68.1119C32.797 68.1119 32.499 68.1935 32.2521 68.3611C32.0053 68.5287 31.818 68.7522 31.6945 69.0401C31.5711 69.328 31.4817 69.6159 31.4349 69.9038C31.3838 70.196 31.3583 70.5054 31.3583 70.8362C31.3583 71.5195 31.5115 72.1211 31.8137 72.641C32.1159 73.1609 32.5841 73.4231 33.2226 73.4231C33.9973 73.4231 34.6018 73.0406 35.0402 72.28Z" fill="white"/>
<path d="M44.4768 67.6172V68.0684C44 68.0684 43.6978 68.2059 43.5659 68.4766L41.1226 73.8608H40.7353L38.2622 68.4766C38.1217 68.2059 37.8493 68.0684 37.4407 68.0684V67.6172H40.2585V68.0684C40.2202 68.0899 40.1649 68.1028 40.0925 68.1071C40.0244 68.1113 39.9606 68.1156 39.9052 68.1199C39.8499 68.1242 39.7988 68.1457 39.7477 68.1801C39.6967 68.2145 39.6669 68.266 39.6583 68.3391C39.6583 68.4293 39.6967 68.5754 39.7775 68.7774L41.2844 72.2838L42.8933 68.6743C42.9316 68.5539 42.9572 68.4637 42.97 68.4035C42.97 68.2145 42.7997 68.107 42.4634 68.0856L42.3144 68.0727V67.6215H44.4768V67.6172Z" fill="white"/>
<path d="M50.9256 72.5369H51.3725C51.1256 73.5295 50.6276 74.028 49.8827 74.028C49.5465 74.028 49.2698 73.9335 49.057 73.7487C48.8441 73.5639 48.7122 73.3018 48.6611 72.958C48.3929 73.2674 48.0609 73.5209 47.6693 73.7186C47.2777 73.9163 46.8818 74.0108 46.486 74.0108C46.0476 74.0108 45.6943 73.869 45.4261 73.5811C45.1579 73.2932 45.0217 72.928 45.0217 72.4768C45.0217 72.0771 45.0983 71.7377 45.2516 71.467C45.4048 71.1962 45.6262 70.99 45.9071 70.8482C46.1923 70.7064 46.4732 70.599 46.7584 70.5173C47.0436 70.4357 47.3714 70.354 47.7502 70.2681C48.129 70.1821 48.4312 70.0919 48.6611 69.9888V69.4774C48.6611 68.9446 48.5887 68.5493 48.444 68.2871C48.2993 68.025 47.9843 67.8961 47.499 67.8961C47.2522 67.8961 47.0564 67.9477 46.9116 68.0465C46.7669 68.1453 46.669 68.2743 46.6137 68.4247C46.5584 68.575 46.5073 68.7211 46.4562 68.8672C46.4051 69.0133 46.3285 69.1337 46.2263 69.2368C46.1242 69.3356 45.9752 69.3872 45.7879 69.3872C45.6304 69.3872 45.4814 69.3399 45.341 69.2497C45.2005 69.1594 45.1324 69.0391 45.1324 68.8887C45.1324 68.5665 45.2814 68.2914 45.5793 68.0551C45.8773 67.8188 46.2008 67.6555 46.5498 67.5652C46.8989 67.475 47.2266 67.4277 47.5331 67.4277C49.1123 67.4277 49.904 68.0637 49.904 69.3399V72.6487C49.904 73.0698 50.0317 73.2889 50.2914 73.3104C50.5808 73.3104 50.7851 73.0826 50.9043 72.6315C50.9256 72.5928 50.9341 72.5541 50.9341 72.524L50.9256 72.5369ZM48.6611 70.4314C48.5206 70.4915 48.2908 70.5732 47.9673 70.672C47.6438 70.7708 47.3799 70.8611 47.1713 70.9427C46.9627 71.0244 46.7627 71.1619 46.5754 71.3552C46.3881 71.5529 46.2817 71.7849 46.2604 72.0557C46.2604 72.365 46.354 72.6272 46.5456 72.8377C46.7329 73.0483 46.9883 73.1557 47.3075 73.1557C47.7332 73.1557 48.1886 72.9494 48.6654 72.5369V70.4314H48.6611Z" fill="white"/>
<path d="M53.4029 67.5105C53.5306 67.7727 53.5987 68.0778 53.5987 68.4301C54.3223 67.7684 55.0885 67.4375 55.893 67.4375C57.1061 67.4375 57.7106 68.1207 57.7106 69.4829V72.19C57.7106 72.5897 57.7787 72.8905 57.9191 73.0838C58.0596 73.2815 58.315 73.3803 58.6938 73.3932V73.8616H55.4759V73.3932C55.8547 73.3846 56.1101 73.2815 56.2505 73.0838C56.391 72.8905 56.4591 72.5897 56.4591 72.19V69.6634C56.4591 68.6922 56.0335 68.2024 55.1779 68.2024C54.6799 68.2024 54.1563 68.4473 53.5987 68.9415V72.19C53.5987 72.5897 53.6711 72.8905 53.8158 73.0838C53.9605 73.2815 54.2202 73.3803 54.599 73.3932V73.8616H51.364V73.3932C51.7428 73.3846 52.0025 73.2815 52.1472 73.0838C52.2919 72.8905 52.3643 72.5897 52.3643 72.19V69.6032C52.3643 69.2122 52.2877 68.9157 52.1387 68.7094C51.9897 68.5032 51.7301 68.3957 51.364 68.3871V67.936C52.1898 67.8156 52.8708 67.6738 53.4072 67.5148L53.4029 67.5105Z" fill="white"/>
<path d="M64.5935 72.2361L65.0404 72.3865C64.6616 73.4307 63.8869 73.9764 62.7164 74.028C61.7842 74.028 61.0137 73.7487 60.405 73.1858C59.8006 72.6229 59.4941 71.8752 59.4941 70.9427C59.4941 69.9587 59.7708 69.1337 60.3284 68.459C60.886 67.7887 61.6437 67.4492 62.6099 67.4492C62.8696 67.4492 63.1505 67.4879 63.4613 67.5609C63.7677 67.6383 64.0614 67.7715 64.3339 67.9692C64.6063 68.1625 64.7425 68.3989 64.7425 68.6696C64.7425 68.8286 64.6872 68.9661 64.5765 69.0778C64.4658 69.1895 64.3296 69.2454 64.1593 69.2454C63.972 69.2454 63.7975 69.1809 63.6358 69.0477C63.606 68.6782 63.5123 68.4032 63.3591 68.227C63.2059 68.0508 62.9462 67.9649 62.5759 67.9649C62.1673 67.9649 61.831 68.111 61.5628 68.4032C61.2947 68.6954 61.1116 69.0219 61.018 69.3829C60.9243 69.7438 60.8775 70.1263 60.8775 70.5259C60.8775 70.9857 60.9371 71.424 61.0563 71.8365C61.1755 72.249 61.3926 72.6143 61.7118 72.9365C62.031 73.2588 62.4184 73.4178 62.8739 73.4178C63.6188 73.4178 64.1891 73.0268 64.5892 72.2447L64.5935 72.2361Z" fill="white"/>
<path d="M71.536 70.5056H67.2879C67.2879 72.4693 67.9221 73.4534 69.1949 73.4534C69.9312 73.4534 70.5655 73.0709 71.1018 72.3103L71.536 72.551C70.9188 73.535 70.0675 74.0249 68.9735 74.0249C68.0584 74.0249 67.3262 73.7198 66.7686 73.1139C66.211 72.508 65.9343 71.7388 65.9343 70.8064C65.9343 69.8739 66.2067 69.079 66.7473 68.4215C67.2879 67.7641 68.0158 67.4375 68.931 67.4375C69.7354 67.4375 70.3697 67.7426 70.8379 68.3485C71.3061 68.9544 71.5402 69.6763 71.5402 70.5056H71.536ZM70.2122 69.9814C70.2122 69.9814 70.2122 69.947 70.2207 69.9126C70.2249 69.8782 70.2292 69.8481 70.2292 69.831C70.2292 68.6063 69.7738 67.9961 68.8586 67.9961C68.3521 67.9961 67.9732 68.1895 67.7178 68.5762C67.4624 68.9629 67.3262 69.4313 67.3092 69.9814H70.2164H70.2122Z" fill="white"/>
<path d="M77.7206 68.3396V65.495C77.7206 64.7043 77.3886 64.3004 76.7203 64.2918V63.8235C77.5248 63.7117 78.2697 63.5742 78.955 63.4023V72.1898C78.955 72.9805 79.2913 73.3844 79.9681 73.393V73.8614C79.4317 73.8614 78.8316 73.8871 78.1633 73.9344C78.0526 73.7238 77.9845 73.5176 77.9547 73.3156C77.2183 73.7883 76.5032 74.0246 75.8094 74.0246C74.8857 74.0246 74.1366 73.7067 73.5577 73.075C72.983 72.4433 72.6936 71.657 72.6936 70.7116C72.6936 69.7663 72.9575 68.9885 73.4853 68.3654C74.0131 67.7424 74.7368 67.433 75.6604 67.433C76.5841 67.433 77.2396 67.7338 77.7164 68.3354L77.7206 68.3396ZM77.7206 72.28V69.1948C77.4226 68.4729 76.7927 68.1119 75.8264 68.1119C75.4774 68.1119 75.1794 68.1935 74.9326 68.3611C74.6857 68.5287 74.4984 68.7522 74.3749 69.0401C74.2515 69.328 74.1621 69.6159 74.1153 69.9038C74.0642 70.196 74.0387 70.5054 74.0387 70.8362C74.0387 71.5195 74.1919 72.1211 74.4941 72.641C74.7963 73.1609 75.2646 73.4231 75.9031 73.4231C76.6778 73.4231 77.2822 73.0406 77.7206 72.28Z" fill="white"/>
<path d="M87.4852 69.1225V72.1906C87.4852 72.4699 87.5108 72.6933 87.5661 72.8523C87.6214 73.0113 87.7278 73.1316 87.8853 73.2047C88.0428 73.2777 88.1875 73.3293 88.3195 73.3465C88.4472 73.368 88.6685 73.3809 88.975 73.3937V73.8621H84.5056V73.3937C84.8121 73.3852 85.0334 73.368 85.1696 73.3465C85.3058 73.325 85.4463 73.2777 85.6038 73.2047C85.757 73.1273 85.8635 73.0113 85.9188 72.8523C85.9741 72.6933 85.9997 72.4699 85.9997 72.1906V65.4958C85.9997 65.2251 85.9741 65.0059 85.9188 64.8426C85.8635 64.675 85.7613 64.5547 85.6038 64.4817C85.4506 64.4086 85.3016 64.3571 85.1654 64.3399C85.0249 64.3184 84.8078 64.3055 84.5099 64.2926V63.8242H88.7409C89.971 63.8242 90.8777 64.0434 91.4523 64.486C92.0866 64.9758 92.4058 65.5989 92.4058 66.3509C92.4058 67.1029 92.1291 67.7002 91.58 68.1728C91.0267 68.6455 90.3712 68.8904 89.605 68.9119C89.7923 68.942 89.971 68.985 90.1328 69.0494C90.2945 69.1139 90.4393 69.1654 90.5585 69.2213C90.6776 69.2772 90.8096 69.3631 90.9543 69.4834C91.099 69.6037 91.2054 69.6983 91.2736 69.7627C91.3417 69.8272 91.4481 69.9518 91.5885 70.1323C91.729 70.3128 91.8184 70.4331 91.8567 70.4932C91.895 70.5534 91.9929 70.6952 92.1419 70.9143C92.2909 71.1335 92.3845 71.2753 92.4271 71.3355C92.4867 71.4257 92.5973 71.6062 92.7633 71.8683C92.9294 72.1347 93.0571 72.3281 93.1592 72.457C93.2571 72.5816 93.3891 72.732 93.5551 72.9082C93.7211 73.0844 93.8999 73.209 94.0914 73.2863C94.2829 73.3637 94.4958 73.398 94.7256 73.398V73.8664H92.4611C92.0355 73.5055 91.5162 72.7965 90.9117 71.7437C90.3073 70.6909 89.8434 69.9819 89.5241 69.6209C89.2261 69.2901 88.8303 69.1225 88.3323 69.1225H87.498H87.4852ZM87.4852 68.624H88.7835C89.4773 68.624 89.9838 68.4392 90.3031 68.0654C90.6223 67.6959 90.7798 67.1415 90.7798 66.411C90.7798 64.9973 90.0392 64.2883 88.5579 64.2883H87.4852V68.6197V68.624Z" fill="white"/>
<path d="M100.57 70.5056H96.3218C96.3218 72.4693 96.9561 73.4534 98.2288 73.4534C98.9652 73.4534 99.5994 73.0709 100.136 72.3103L100.57 72.551C99.9527 73.535 99.1014 74.0249 98.0074 74.0249C97.0923 74.0249 96.3602 73.7198 95.8026 73.1139C95.2449 72.508 94.9683 71.7388 94.9683 70.8064C94.9683 69.8739 95.2407 69.079 95.7813 68.4215C96.3219 67.7641 97.0497 67.4375 97.9649 67.4375C98.7694 67.4375 99.4036 67.7426 99.8718 68.3485C100.34 68.9544 100.574 69.6763 100.574 70.5056H100.57ZM99.2419 69.9814C99.2419 69.9814 99.2419 69.947 99.2504 69.9126C99.2546 69.8782 99.2589 69.8481 99.2589 69.831C99.2589 68.6063 98.8034 67.9961 97.8883 67.9961C97.3817 67.9961 97.0029 68.1895 96.7475 68.5762C96.4921 68.9629 96.3559 69.4313 96.3389 69.9814H99.2461H99.2419Z" fill="white"/>
<path d="M105.486 67.618V69.6806H105.141C105.044 69.2208 104.852 68.8212 104.567 68.486C104.282 68.1508 103.924 67.9832 103.486 67.9832C103.239 67.9832 103.03 68.0649 102.868 68.2239C102.702 68.3829 102.622 68.5891 102.622 68.8426C102.622 69.0962 102.732 69.2981 102.949 69.4915C103.166 69.6806 103.43 69.8438 103.741 69.9814C104.052 70.1189 104.358 70.2693 104.673 70.4325C104.988 70.5958 105.252 70.8236 105.469 71.1115C105.686 71.3994 105.797 71.7345 105.797 72.1256C105.797 72.6971 105.627 73.1569 105.29 73.5092C104.954 73.8616 104.507 74.0335 103.95 74.0335C103.315 74.0335 102.749 73.8057 102.251 73.3545L102 73.8659H101.643V71.7131H102C102.06 72.2029 102.251 72.6197 102.583 72.9549C102.911 73.2901 103.315 73.4577 103.792 73.4577C104.082 73.4577 104.328 73.3717 104.537 73.1998C104.746 73.028 104.852 72.8045 104.852 72.5209C104.852 72.2373 104.741 72.0139 104.524 71.8076C104.307 71.6013 104.043 71.4252 103.733 71.2834C103.426 71.1373 103.115 70.9826 102.809 70.815C102.502 70.6517 102.238 70.4282 102.017 70.1532C101.8 69.8782 101.689 69.5602 101.689 69.1993C101.689 68.6665 101.843 68.241 102.145 67.9188C102.447 67.5965 102.856 67.4375 103.375 67.4375C103.92 67.4375 104.418 67.6781 104.865 68.1594L105.15 67.618H105.495H105.486Z" fill="white"/>
<path d="M112.488 70.5056H108.24C108.24 72.4693 108.875 73.4534 110.147 73.4534C110.884 73.4534 111.518 73.0709 112.054 72.3103L112.488 72.551C111.871 73.535 111.02 74.0249 109.926 74.0249C109.011 74.0249 108.279 73.7198 107.721 73.1139C107.163 72.508 106.887 71.7388 106.887 70.8064C106.887 69.8739 107.159 69.079 107.7 68.4215C108.24 67.7641 108.968 67.4375 109.883 67.4375C110.688 67.4375 111.322 67.7426 111.79 68.3485C112.259 68.9544 112.493 69.6763 112.493 70.5056H112.488ZM111.165 69.9814C111.165 69.9814 111.165 69.947 111.173 69.9126C111.177 69.8782 111.182 69.8481 111.182 69.831C111.182 68.6063 110.726 67.9961 109.811 67.9961C109.304 67.9961 108.926 68.1895 108.67 68.5762C108.419 68.9629 108.279 69.4313 108.262 69.9814H111.169H111.165Z" fill="white"/>
<path d="M119.554 72.5369H120.001C119.754 73.5295 119.256 74.028 118.511 74.028C118.175 74.028 117.898 73.9335 117.686 73.7487C117.473 73.5639 117.341 73.3018 117.29 72.958C117.022 73.2674 116.69 73.5209 116.298 73.7186C115.906 73.9163 115.511 74.0108 115.115 74.0108C114.676 74.0108 114.323 73.869 114.055 73.5811C113.787 73.2932 113.65 72.928 113.65 72.4768C113.65 72.0771 113.727 71.7377 113.88 71.467C114.033 71.1962 114.255 70.99 114.536 70.8482C114.821 70.7064 115.102 70.599 115.387 70.5173C115.672 70.4357 116 70.354 116.379 70.2681C116.758 70.1821 117.06 70.0919 117.29 69.9888V69.4774C117.29 68.9446 117.217 68.5493 117.073 68.2871C116.928 68.025 116.613 67.8961 116.128 67.8961C115.881 67.8961 115.685 67.9477 115.54 68.0465C115.396 68.1453 115.298 68.2743 115.242 68.4247C115.187 68.575 115.136 68.7211 115.085 68.8672C115.034 69.0133 114.957 69.1337 114.855 69.2368C114.749 69.3356 114.604 69.3872 114.417 69.3872C114.259 69.3872 114.11 69.3399 113.97 69.2497C113.829 69.1594 113.761 69.0391 113.761 68.8887C113.761 68.5665 113.91 68.2914 114.208 68.0551C114.506 67.8188 114.829 67.6555 115.178 67.5652C115.528 67.475 115.855 67.4277 116.162 67.4277C117.741 67.4277 118.533 68.0637 118.533 69.3399V72.6487C118.533 73.0698 118.66 73.2889 118.92 73.3104C119.209 73.3104 119.414 73.0826 119.533 72.6315C119.554 72.5928 119.563 72.5541 119.563 72.524L119.554 72.5369ZM117.29 70.4314C117.149 70.4915 116.919 70.5732 116.596 70.672C116.272 70.7708 116.009 70.8611 115.8 70.9427C115.591 71.0244 115.391 71.1619 115.204 71.3552C115.017 71.5529 114.91 71.7849 114.889 72.0557C114.889 72.365 114.983 72.6272 115.174 72.8377C115.362 73.0483 115.617 73.1557 115.936 73.1557C116.362 73.1557 116.817 72.9494 117.294 72.5369V70.4314H117.29Z" fill="white"/>
<path d="M122.223 69.1212V72.1892C122.223 72.649 122.291 72.9498 122.432 73.083C122.572 73.2205 122.861 73.328 123.313 73.4053V73.8565H119.988V73.3881C120.367 73.3795 120.627 73.2764 120.771 73.0787C120.916 72.8854 120.989 72.5846 120.989 72.185V69.5981C120.989 69.2071 120.912 68.9106 120.763 68.7043C120.614 68.4981 120.354 68.3907 119.988 68.3821V67.9309C120.814 67.8106 121.495 67.6688 122.031 67.5098C122.159 67.7504 122.227 68.1285 122.227 68.6399C122.772 67.9094 123.364 67.5398 124.002 67.5398C124.241 67.5398 124.445 67.6129 124.619 67.759C124.794 67.9051 124.879 68.0942 124.879 68.3219C124.879 68.4723 124.828 68.6098 124.73 68.7344C124.632 68.859 124.504 68.9278 124.356 68.9364C124.207 68.9364 124.041 68.8418 123.862 68.6485C123.683 68.4594 123.525 68.3606 123.385 68.3606C123.155 68.3606 122.934 68.4336 122.721 68.5797C122.508 68.7258 122.342 68.902 122.223 69.1126V69.1212Z" fill="white"/>
<path d="M130.566 72.2361L131.013 72.3865C130.634 73.4307 129.859 73.9764 128.689 74.028C127.757 74.028 126.986 73.7487 126.377 73.1858C125.773 72.6229 125.467 71.8752 125.467 70.9427C125.467 69.9587 125.743 69.1337 126.301 68.459C126.858 67.7887 127.616 67.4492 128.582 67.4492C128.842 67.4492 129.123 67.4879 129.434 67.5609C129.74 67.6383 130.034 67.7715 130.306 67.9692C130.579 68.1625 130.715 68.3989 130.715 68.6696C130.715 68.8286 130.66 68.9661 130.553 69.0778C130.447 69.1895 130.306 69.2454 130.136 69.2454C129.949 69.2454 129.774 69.1809 129.612 69.0477C129.583 68.6782 129.489 68.4032 129.336 68.227C129.183 68.0508 128.923 67.9649 128.553 67.9649C128.144 67.9649 127.808 68.111 127.539 68.4032C127.271 68.6954 127.088 69.0219 126.995 69.3829C126.901 69.7438 126.854 70.1263 126.854 70.5259C126.854 70.9857 126.914 71.424 127.033 71.8365C127.152 72.249 127.369 72.6143 127.688 72.9365C128.008 73.2588 128.395 73.4178 128.851 73.4178C129.595 73.4178 130.166 73.0268 130.566 72.2447V72.2361Z" fill="white"/>
<path d="M138.866 73.8621H135.648V73.3938C136.027 73.3852 136.282 73.282 136.423 73.0844C136.563 72.891 136.631 72.5902 136.631 72.1906V69.5436C136.631 69.1225 136.525 68.7916 136.312 68.551C136.099 68.3104 135.78 68.19 135.35 68.19C134.835 68.19 134.303 68.4221 133.754 68.8819V72.1906C133.754 72.5902 133.826 72.891 133.971 73.0844C134.116 73.282 134.375 73.3809 134.754 73.3938V73.8621H131.519V73.3938C131.898 73.3852 132.158 73.282 132.302 73.0844C132.447 72.891 132.52 72.5902 132.52 72.1906V65.4958C132.52 64.7051 132.188 64.3012 131.519 64.2926V63.8242C132.243 63.7254 132.988 63.5879 133.754 63.416V68.276C134.52 67.7131 135.252 67.4338 135.959 67.4338C136.593 67.4338 137.074 67.6185 137.398 67.9924C137.721 68.3619 137.883 68.869 137.883 69.5135V72.1906C137.883 72.5902 137.951 72.891 138.091 73.0844C138.232 73.282 138.487 73.3809 138.866 73.3938V73.8621Z" fill="white"/>
<path d="M146.379 69.0924V72.1906C146.379 72.4699 146.405 72.6933 146.46 72.8523C146.515 73.0113 146.622 73.1316 146.779 73.2047C146.937 73.2777 147.081 73.3293 147.209 73.3465C147.337 73.3637 147.558 73.3809 147.865 73.3937V73.8621H143.395V73.3937C143.702 73.3852 143.923 73.368 144.059 73.3465C144.195 73.325 144.336 73.2777 144.489 73.2047C144.642 73.1273 144.749 73.0113 144.804 72.8523C144.86 72.6933 144.885 72.4699 144.885 72.1906V65.4958C144.885 65.2251 144.86 65.0059 144.804 64.8426C144.749 64.675 144.647 64.5547 144.489 64.4817C144.336 64.4086 144.187 64.3571 144.051 64.3399C143.91 64.3184 143.693 64.3055 143.395 64.2926V63.8242H146.898C147.256 63.8242 147.545 63.8242 147.763 63.8328C147.98 63.8371 148.261 63.8586 148.597 63.893C148.933 63.9273 149.21 63.9789 149.418 64.0434C149.627 64.1078 149.857 64.2067 150.104 64.3356C150.35 64.4645 150.546 64.6235 150.691 64.8082C150.836 64.993 150.955 65.2294 151.049 65.5173C151.142 65.8009 151.189 66.1274 151.189 66.4884C151.189 66.9611 151.078 67.3951 150.861 67.7904C150.644 68.1857 150.333 68.4951 149.938 68.7143C149.469 68.9635 148.767 69.0924 147.822 69.0924H146.375H146.379ZM146.379 68.624H147.528C148.184 68.624 148.69 68.4264 149.048 68.031C149.406 67.6357 149.584 67.1029 149.584 66.4282C149.584 65.6462 149.401 65.0876 149.031 64.7524C148.665 64.4172 148.086 64.2496 147.303 64.2496C147.103 64.2496 146.796 64.2582 146.379 64.2797V68.6283V68.624Z" fill="white"/>
<path d="M153.619 69.1212V72.1892C153.619 72.649 153.688 72.9498 153.828 73.083C153.969 73.2205 154.258 73.328 154.709 73.4053V73.8565H151.385V73.3881C151.764 73.3795 152.023 73.2764 152.168 73.0787C152.313 72.8854 152.385 72.5846 152.385 72.185V69.5981C152.385 69.2071 152.308 68.9106 152.159 68.7043C152.01 68.4981 151.751 68.3907 151.385 68.3821V67.9309C152.211 67.8106 152.892 67.6688 153.428 67.5098C153.556 67.7504 153.624 68.1285 153.624 68.6399C154.169 67.9094 154.76 67.5398 155.399 67.5398C155.637 67.5398 155.841 67.6129 156.016 67.759C156.19 67.9051 156.276 68.0942 156.276 68.3219C156.276 68.4723 156.224 68.6098 156.127 68.7344C156.029 68.859 155.901 68.9278 155.752 68.9364C155.603 68.9364 155.437 68.8418 155.258 68.6485C155.079 68.4594 154.922 68.3606 154.782 68.3606C154.552 68.3606 154.33 68.4336 154.117 68.5797C153.905 68.7258 153.739 68.902 153.619 69.1126V69.1212Z" fill="white"/>
<path d="M163.29 70.7634C163.29 71.7259 162.992 72.5123 162.396 73.1182C161.801 73.7241 161.026 74.0292 160.072 74.0292C159.119 74.0292 158.31 73.7456 157.731 73.1698C157.157 72.5983 156.867 71.8162 156.867 70.8236C156.867 69.831 157.157 68.993 157.74 68.37C158.323 67.7469 159.115 67.4375 160.115 67.4375C161.115 67.4375 161.898 67.7383 162.456 68.3399C163.014 68.9415 163.29 69.7493 163.29 70.7634ZM161.95 70.7935C161.95 70.4927 161.941 70.2263 161.92 69.9899C161.898 69.7536 161.852 69.5001 161.771 69.2208C161.69 68.9458 161.588 68.7137 161.456 68.5289C161.328 68.3442 161.145 68.1895 160.911 68.0692C160.677 67.9488 160.4 67.8887 160.085 67.8887C158.834 67.8887 158.208 68.8856 158.208 70.8837C158.208 71.6271 158.353 72.2631 158.638 72.7959C158.927 73.3288 159.404 73.5952 160.068 73.5952C160.536 73.5952 160.919 73.4405 161.217 73.1354C161.515 72.8303 161.711 72.4822 161.805 72.0912C161.898 71.7002 161.945 71.2705 161.945 70.7978L161.95 70.7935Z" fill="white"/>
<path d="M166.317 67.5103V75.2879C166.317 76.0614 166.1 76.7059 165.67 77.2216C165.236 77.7372 164.644 77.9951 163.89 77.9951C163.593 77.9951 163.286 77.922 162.975 77.7673C162.66 77.6169 162.507 77.4064 162.507 77.1356C162.507 76.9938 162.558 76.8735 162.665 76.7661C162.771 76.663 162.89 76.6071 163.031 76.6071C163.201 76.6071 163.392 76.736 163.605 76.9981C163.818 77.2603 164.018 77.3892 164.21 77.3892C164.418 77.3892 164.589 77.3333 164.716 77.2259C164.844 77.1142 164.933 76.9552 164.984 76.7446C165.035 76.5341 165.065 76.3579 165.074 76.2118C165.082 76.0657 165.091 75.8766 165.091 75.6489V69.6029C165.091 69.2119 165.014 68.9154 164.865 68.7091C164.716 68.5029 164.457 68.3954 164.091 68.3869V67.9357C164.738 67.8454 165.482 67.7036 166.325 67.5146L166.317 67.5103ZM165.751 66.4747C165.542 66.4747 165.359 66.4016 165.197 66.2555C165.04 66.1094 164.959 65.9332 164.959 65.7227C164.959 65.5121 165.04 65.336 165.197 65.1899C165.355 65.0438 165.542 64.9707 165.751 64.9707C165.959 64.9707 166.125 65.048 166.274 65.1984C166.423 65.3488 166.5 65.525 166.5 65.727C166.5 65.9289 166.427 66.1051 166.274 66.2555C166.121 66.4059 165.951 66.4833 165.751 66.4833V66.4747Z" fill="white"/>
<path d="M173.485 70.5056H169.237C169.237 72.4693 169.871 73.4534 171.144 73.4534C171.88 73.4534 172.514 73.0709 173.051 72.3103L173.485 72.551C172.868 73.535 172.016 74.0249 170.922 74.0249C170.007 74.0249 169.275 73.7198 168.718 73.1139C168.16 72.508 167.883 71.7388 167.883 70.8064C167.883 69.8739 168.156 69.079 168.696 68.4215C169.237 67.7641 169.965 67.4375 170.88 67.4375C171.684 67.4375 172.319 67.7426 172.787 68.3485C173.255 68.9544 173.489 69.6763 173.489 70.5056H173.485ZM172.157 69.9814C172.157 69.9814 172.157 69.947 172.165 69.9126C172.17 69.8782 172.174 69.8481 172.174 69.831C172.174 68.6063 171.718 67.9961 170.803 67.9961C170.297 67.9961 169.918 68.1895 169.663 68.5762C169.411 68.9629 169.271 69.4313 169.254 69.9814H172.161H172.157Z" fill="white"/>
<path d="M179.746 72.2361L180.193 72.3865C179.814 73.4307 179.04 73.9764 177.869 74.028C176.937 74.028 176.167 73.7487 175.558 73.1858C174.953 72.6229 174.647 71.8752 174.647 70.9427C174.647 69.9587 174.924 69.1337 175.481 68.459C176.039 67.7887 176.797 67.4492 177.763 67.4492C178.022 67.4492 178.303 67.4879 178.614 67.5609C178.921 67.6383 179.214 67.7715 179.487 67.9692C179.759 68.1625 179.895 68.3989 179.895 68.6696C179.895 68.8286 179.84 68.9661 179.734 69.0778C179.627 69.1895 179.487 69.2454 179.316 69.2454C179.129 69.2454 178.955 69.1809 178.793 69.0477C178.763 68.6782 178.669 68.4032 178.516 68.227C178.363 68.0508 178.103 67.9649 177.733 67.9649C177.324 67.9649 176.988 68.111 176.72 68.4032C176.452 68.6954 176.269 69.0219 176.175 69.3829C176.081 69.7438 176.035 70.1263 176.035 70.5259C176.035 70.9857 176.094 71.424 176.213 71.8365C176.333 72.249 176.55 72.6143 176.869 72.9365C177.188 73.2588 177.575 73.4178 178.031 73.4178C178.776 73.4178 179.346 73.0268 179.746 72.2447V72.2361Z" fill="white"/>
<path d="M184.305 67.5696V68.0509H182.649V71.9311C182.649 72.2405 182.705 72.5241 182.82 72.7733C182.934 73.0226 183.122 73.1515 183.377 73.1515C183.518 73.1515 183.662 73.1085 183.811 73.0226C183.96 72.9366 184.058 72.8722 184.109 72.8249C184.16 72.7776 184.267 72.6702 184.437 72.5026L184.735 72.7562C184.25 73.5296 183.641 73.9164 182.917 73.9164C181.913 73.9164 181.411 73.2546 181.411 71.9311V68.0509H180.678V67.72C181.164 67.6384 181.53 67.3634 181.772 66.8864C182.015 66.4094 182.138 65.8938 182.138 65.3438H182.645V67.5696H184.301H184.305Z" fill="white"/>
<path d="M188.685 67.618V69.6806H188.34C188.242 69.2208 188.051 68.8212 187.766 68.486C187.48 68.1508 187.123 67.9832 186.684 67.9832C186.438 67.9832 186.229 68.0649 186.067 68.2239C185.901 68.3829 185.82 68.5891 185.82 68.8426C185.82 69.0962 185.931 69.2981 186.148 69.4915C186.365 69.6806 186.629 69.8438 186.94 69.9814C187.251 70.1189 187.557 70.2693 187.872 70.4325C188.187 70.5958 188.451 70.8236 188.668 71.1115C188.885 71.3994 188.996 71.7345 188.996 72.1256C188.996 72.6971 188.825 73.1569 188.489 73.5092C188.153 73.8616 187.706 74.0335 187.148 74.0335C186.514 74.0335 185.948 73.8057 185.45 73.3545L185.199 73.8659H184.841V71.7131H185.199C185.258 72.2029 185.45 72.6197 185.782 72.9549C186.11 73.2901 186.514 73.4577 186.991 73.4577C187.28 73.4577 187.527 73.3717 187.736 73.1998C187.944 73.028 188.051 72.8045 188.051 72.5209C188.051 72.2373 187.94 72.0139 187.723 71.8076C187.506 71.6013 187.242 71.4252 186.931 71.2834C186.625 71.1373 186.314 70.9826 186.008 70.815C185.701 70.6517 185.437 70.4282 185.216 70.1532C184.999 69.8782 184.888 69.5602 184.888 69.1993C184.888 68.6665 185.041 68.241 185.344 67.9188C185.646 67.5965 186.054 67.4375 186.574 67.4375C187.119 67.4375 187.617 67.6781 188.064 68.1594L188.349 67.618H188.693H188.685Z" fill="white"/>
<path d="M0 3.11192L27.7315 2.23103C28.2125 2.21384 28.6169 2.59628 28.6297 3.08184C28.6467 3.58889 28.2295 4.00571 27.7315 3.98852L0 3.10762V3.11192Z" fill="white"/>
<path d="M0 10.0004L27.7315 9.14095C28.204 9.12806 28.5956 9.5019 28.6126 9.97458C28.6254 10.4515 28.2551 10.8469 27.7869 10.8641C27.7528 10.8684 0.0425657 10.0004 0 10.0047V10.0004Z" fill="white"/>
<path d="M0 16.8873L27.7315 16.0064C28.2125 15.9892 28.6169 16.3717 28.6297 16.8572C28.6467 17.3643 28.2295 17.7811 27.7315 17.7639L0 16.883V16.8873Z" fill="white"/>
<path d="M186.182 8.64955C184.926 6.44946 183.062 4.68767 180.58 3.35558C178.103 2.0235 175.379 1.21136 172.408 0.919158C169.441 0.626959 165.24 0.476562 159.804 0.476562L138.04 0.957832V5.39239H139.347C141.956 5.39239 143.68 5.87795 144.51 6.84908C145.34 7.82451 145.757 9.54763 145.757 12.0227V13.8103H158.463V11.361L163.754 12.2934L161.162 7.03815L181.487 15.7783L161.226 24.3939L163.733 19.1257L158.493 19.9078V17.0847H145.757V44.0615C145.757 46.485 145.353 48.1996 144.549 49.1965C143.744 50.1934 142.012 50.6962 139.347 50.6962H138.398V55.1307H167.483V50.6962H166.257C163.618 50.6962 161.881 50.2106 161.051 49.2352C160.221 48.264 159.804 46.5409 159.804 44.0615V31.1575H163.763C169.092 31.1575 173.387 30.7536 176.643 29.9414C179.904 29.1293 182.619 27.462 184.794 24.9482C186.974 22.4302 188.059 19.4008 188.059 15.86C188.059 13.2474 187.433 10.8453 186.182 8.64955Z" fill="white"/>
<path d="M69.5734 49.4375C68.2284 48.5996 66.7215 46.0987 65.0615 41.9478L55.995 19.3367C55.5736 19.6117 55.1692 19.9168 54.7734 20.252C53.6709 21.193 52.5727 21.468 51.2404 21.3735C50.5125 21.3219 49.7804 21.3606 48.6992 21.3606C49.5293 20.5227 50.1805 19.9512 50.7083 19.2851C50.9382 18.9929 50.9084 18.4945 50.9935 18.0906C50.636 18.1937 50.2274 18.2238 49.9294 18.4214C49.5463 18.6664 49.1717 18.9972 48.9206 19.3797C48.2821 20.3465 47.5159 20.918 46.6348 21.1973L52.7174 35.9147H39.6966L45.3749 21.4079C44.7194 21.438 44.0213 21.3563 43.2764 21.1973C43.9574 20.4969 44.6172 19.8824 45.1833 19.1906C45.3919 18.9285 45.3834 18.4816 45.4728 18.1206C45.1067 18.1808 44.7023 18.1636 44.3873 18.3226C44.0724 18.4859 43.8425 18.8211 43.5829 19.0875C41.0672 21.6313 40.7139 21.7431 36.7979 21.1801C38.624 19.3152 40.3606 17.5448 42.1867 15.6842C41.063 14.5326 39.9563 13.3939 38.8112 12.2165L27.1099 41.9865C24.8157 47.7918 21.9808 50.6966 18.6011 50.6966V55.1311H41.0119V50.6966C39.0368 50.6966 37.6109 50.4344 36.7383 49.9145C35.87 49.3946 35.4358 48.4836 35.4358 47.1773C35.4358 46.4081 35.8019 45.076 36.5425 43.1853L37.5726 40.5083H54.071L55.6162 44.4615L56.1312 45.7034C56.6037 46.739 56.8421 47.5769 56.8421 48.2172C56.8421 48.9348 56.5526 49.5321 55.9737 49.9961C55.3906 50.4602 53.9008 50.6966 51.5001 50.6966V55.1311H73.4512V50.6966C72.2083 50.6966 70.9185 50.2755 69.5734 49.4375ZM48.7376 10.025C50.0018 10.0938 51.1766 9.97345 52.3003 10.1152L48.2438 0H43.6127L39.6838 9.99493C40.1052 9.99493 40.5139 10.0035 40.9268 10.0293C41.3184 10.0508 41.7483 10.3946 42.0633 10.6996C42.9061 11.4989 43.6637 12.3841 44.5193 13.1662C44.7108 13.338 45.1578 13.2177 45.4855 13.2306C45.4557 12.9341 45.5324 12.5388 45.3749 12.354C44.7492 11.6235 44.0511 10.9618 43.2338 10.1195C45.294 9.96485 47.1754 9.54804 48.4822 11.529C48.8057 12.0231 49.2824 12.4442 49.7676 12.7966C50.1252 13.0544 50.6062 13.1404 51.0318 13.2994C50.8786 12.831 50.8233 12.2896 50.5466 11.9157C50.0869 11.2969 49.4825 10.7856 48.7376 10.025Z" fill="white"/>
</g>
<g clip-path="url(#clip1_183_1726)">
<path d="M49.5967 88.6573H44.8804V88H55.0078V88.6573H50.2914V100.526H49.5967V88.6573Z" fill="white"/>
<path d="M56.4336 88H57.0917V94.2535L56.9637 94.2347C57.1968 93.4319 57.6264 92.8028 58.2616 92.3474C58.8969 91.892 59.6373 91.662 60.4919 91.662C61.5019 91.662 62.2742 91.9859 62.8043 92.6291C63.3345 93.2723 63.5995 94.2019 63.5995 95.4178V100.526H62.9414V95.5305C62.9414 94.4648 62.7267 93.662 62.2925 93.1174C61.8583 92.5728 61.2185 92.3005 60.3639 92.3005C59.7195 92.3005 59.1482 92.4601 58.6547 92.7793C58.1611 93.0986 57.7772 93.5446 57.503 94.1127C57.2288 94.6808 57.0917 95.3568 57.0917 96.1315V100.526H56.4336V88Z" fill="white"/>
<path d="M65.2449 96.2067C65.2449 95.3288 65.4231 94.5494 65.775 93.8593C66.1269 93.1692 66.6159 92.6339 67.2374 92.2443C67.859 91.8546 68.5582 91.6621 69.3397 91.6621C70.1212 91.6621 70.8021 91.8546 71.3871 92.2349C71.9721 92.6152 72.4291 93.1551 72.7582 93.8499C73.0872 94.5447 73.2517 95.3476 73.2517 96.263V96.3757H65.5739V95.8123H72.813L72.5571 96.094C72.5571 95.3429 72.4245 94.6809 72.1549 94.1128C71.8853 93.5447 71.5151 93.0987 71.0398 92.7795C70.5645 92.4602 70.0024 92.3006 69.358 92.3006C68.7136 92.3006 68.1103 92.4649 67.5939 92.7889C67.0775 93.1128 66.6662 93.5541 66.3691 94.1128C66.0721 94.6715 65.9213 95.31 65.9213 96.0377V96.2255C65.9213 96.9907 66.0766 97.6668 66.3874 98.2537C66.6982 98.8405 67.1278 99.3006 67.6762 99.6339C68.2246 99.9673 68.8461 100.132 69.5408 100.132C70.1258 100.132 70.6696 100.014 71.1769 99.7748C71.6842 99.5353 72.1138 99.1973 72.4657 98.7607L72.9044 99.1926C72.5159 99.695 72.0315 100.08 71.4511 100.348C70.8707 100.615 70.2354 100.751 69.5408 100.751C68.7136 100.751 67.9732 100.559 67.3197 100.169C66.6662 99.7795 66.1589 99.2443 65.7933 98.5541C65.4277 97.864 65.2449 97.0846 65.2449 96.2067Z" fill="white"/>
<path d="M77.0632 99.864H76.8575L79.9744 89.249H80.6188L83.7173 99.864L83.5345 99.8499L86.5462 88.8828H87.2454L83.9412 100.549H83.2786L80.1937 90.0002H80.3811L77.2826 100.549H76.6199L73.334 88.8828H74.0332L77.0632 99.864Z" fill="white"/>
<path d="M87.3276 96.525C87.3276 95.7222 87.5013 94.9991 87.8486 94.3653C88.196 93.7315 88.6758 93.2245 89.2882 92.8536C89.9006 92.4827 90.5816 92.2949 91.3311 92.2949C92.0806 92.2949 92.7889 92.4827 93.3922 92.8536C93.9954 93.2292 94.4707 93.7315 94.8226 94.3653C95.1745 94.9991 95.3482 95.7222 95.3482 96.525C95.3482 97.3278 95.17 98.0508 94.8226 98.694C94.4707 99.3372 93.9954 99.8395 93.3922 100.206C92.7889 100.572 92.1034 100.755 91.3311 100.755C90.5587 100.755 89.9006 100.572 89.2882 100.206C88.6758 99.8395 88.196 99.3325 87.8486 98.694C87.5013 98.0508 87.3276 97.3278 87.3276 96.525ZM87.9766 96.525C87.9766 97.2245 88.1228 97.8489 88.4199 98.3982C88.7124 98.9475 89.1146 99.3794 89.6218 99.7034C90.1246 100.023 90.6958 100.182 91.3311 100.182C91.9663 100.182 92.5559 100.023 93.0677 99.7034C93.5796 99.3841 93.9772 98.9475 94.2697 98.3982C94.5576 97.8489 94.7038 97.2245 94.7038 96.525C94.7038 95.8254 94.5576 95.2198 94.2697 94.6705C93.9817 94.1212 93.5796 93.6893 93.0677 93.3653C92.5559 93.0461 91.9755 92.8865 91.3311 92.8865C90.6867 92.8865 90.1246 93.0461 89.6218 93.3653C89.1191 93.6846 88.717 94.1212 88.4199 94.6705C88.1228 95.2198 87.9766 95.8348 87.9766 96.525Z" fill="white"/>
<path d="M96.9341 92.5213H97.4962L97.5465 94.8123L97.4459 94.8452C97.6379 94.1081 97.9944 93.5213 98.5199 93.0799C99.0409 92.6386 99.6442 92.418 100.325 92.418C100.608 92.418 100.864 92.4602 101.093 92.54L100.938 93.1504C100.755 93.094 100.54 93.0612 100.289 93.0612C99.7767 93.0612 99.3151 93.2067 98.8992 93.4978C98.4834 93.7889 98.1543 94.1785 97.9121 94.6621C97.6699 95.1457 97.5465 95.6903 97.5465 96.2959V100.545H96.9341V92.5213Z" fill="white"/>
<path d="M102.788 88.8828H102.176V100.549H102.788V88.8828Z" fill="white"/>
<path d="M104.374 96.6997C104.374 95.8265 104.543 95.0565 104.877 94.3992C105.211 93.742 105.681 93.2255 106.28 92.8499C106.883 92.4791 107.573 92.2913 108.359 92.2913C108.894 92.2913 109.397 92.3852 109.868 92.573C110.338 92.7607 110.791 93.0424 111.22 93.4321V94.2021C110.868 93.7842 110.439 93.4603 109.927 93.2302C109.415 93.0049 108.88 92.8875 108.327 92.8875C107.669 92.8875 107.089 93.0424 106.591 93.3617C106.093 93.6762 105.704 94.1176 105.435 94.6809C105.16 95.2443 105.028 95.9063 105.028 96.6669C105.028 97.7279 105.293 98.5776 105.828 99.2208C106.362 99.864 107.08 100.183 107.989 100.183C108.899 100.183 109.589 99.8687 110.128 99.249C110.667 98.6246 110.937 97.7936 110.937 96.7561V88.8828H111.549V100.549H110.987L110.937 98.3617L111.056 98.3946C110.841 99.141 110.457 99.7232 109.909 100.136C109.36 100.549 108.693 100.756 107.907 100.756C107.203 100.756 106.586 100.587 106.052 100.249C105.517 99.911 105.105 99.4368 104.818 98.8312C104.53 98.2255 104.383 97.5119 104.383 96.695" fill="white"/>
<path d="M113.816 92.3095L113.834 89.2109H124.899L124.917 92.3095H124.181C123.761 90.3987 123.359 90.0184 121.832 90.0184H120.594V98.1311C120.594 99.5255 120.914 99.9574 121.969 99.9386H122.339V100.695H116.371V99.9386H116.741C117.797 99.9574 118.117 99.5255 118.117 98.1311V90.0184H116.928C115.251 90.0184 114.899 90.38 114.566 92.3095H113.83H113.816Z" fill="white"/>
<path d="M131.566 97.2336C131.566 99.3697 129.907 100.971 127.696 100.971C125.333 100.971 123.674 99.4402 123.674 97.2524C123.674 95.0646 125.315 93.4824 127.632 93.4824C129.949 93.4824 131.571 95.0505 131.571 97.2383L131.566 97.2336ZM126.352 94.9237C126.101 95.3885 126 96.0787 126 97.2148C126 98.351 126.101 99.0599 126.352 99.5247C126.585 99.9378 127.074 100.215 127.59 100.215C128.797 100.215 129.236 99.4214 129.236 97.2007C129.236 94.9801 128.783 94.2383 127.627 94.2383C127.056 94.2383 126.59 94.4965 126.352 94.9284V94.9237Z" fill="white"/>
<path d="M141.104 100.591C139.866 100.624 138.76 100.746 138.001 100.901C137.882 100.521 137.832 100.23 137.832 99.8352V99.7319C137.096 100.507 136.224 100.906 135.268 100.906C133.39 100.906 132.115 99.4596 132.115 97.3047C132.115 95.0136 133.454 93.4831 135.433 93.4831C136.356 93.4831 137.243 93.8446 137.814 94.4314V91.7084C137.782 90.5535 137.595 90.2953 136.777 90.2812H136.694V89.5582C137.869 89.4737 139.158 89.2671 139.848 89.0605H139.966L139.985 98.4127C139.985 99.53 140.204 99.8399 140.99 99.8399H141.109V100.596L141.104 100.591ZM137.818 95.2718C137.215 94.7225 136.713 94.4784 136.16 94.4784C135.022 94.4784 134.45 95.3563 134.45 97.1497C134.45 98.9432 135.003 99.8868 136.059 99.8868C136.745 99.8868 137.384 99.4925 137.818 98.7836V95.2718Z" fill="white"/>
<path d="M149.618 99.2488C149.568 100.263 148.883 100.869 147.74 100.869C146.885 100.869 146.282 100.526 145.994 99.8498C145.089 100.521 144.148 100.869 143.261 100.869C142.137 100.869 141.383 100.249 141.383 99.3193C141.383 98.8873 141.584 98.3897 141.867 98.1315C142.439 97.6338 143.325 97.1174 144.5 96.6526C144.651 96.601 144.902 96.4977 145.222 96.3615L145.894 96.1033V95.5681C145.894 95.0188 145.812 94.6902 145.592 94.5352C145.391 94.3615 145.007 94.2442 144.619 94.2442C144.23 94.2442 143.846 94.3662 143.664 94.5211C143.563 94.6244 143.481 94.831 143.43 95.1409C143.33 95.7418 143.01 96.0188 142.475 96.0188C141.991 96.0188 141.639 95.7089 141.639 95.2629C141.639 94.2488 143.147 93.4883 145.144 93.4883C146.351 93.4883 147.155 93.7277 147.626 94.2442C147.978 94.6244 148.06 94.8967 148.06 95.7606V98.8451C148.06 99.5869 148.179 99.8592 148.531 99.8592C148.8 99.8592 149.001 99.6338 149.065 99.2582H149.618V99.2488ZM145.793 96.8873C144.134 97.5775 143.531 98.0939 143.531 98.8498C143.531 99.3991 143.933 99.831 144.436 99.831C144.87 99.831 145.373 99.5728 145.894 99.0892V96.8498L145.793 96.8826V96.8873Z" fill="white"/>
<path d="M152.585 93.7559V94.4789H152.466C152.114 94.5117 151.981 94.615 151.981 94.8732C151.981 95.0469 152.05 95.3052 152.164 95.5117L153.741 98.662L154.998 95.7699C155.267 95.1314 155.299 95.0657 155.299 94.892C155.299 94.6338 155.066 94.4789 154.664 94.4789H154.531V93.7559H157.132V94.4789L157.013 94.4976C156.46 94.5822 156.19 94.9296 155.573 96.3756L152.671 102.901C151.986 104.451 151.465 105.005 150.693 105.005C150.121 105.005 149.705 104.61 149.705 104.075C149.705 103.54 150.025 103.23 150.729 103.023C151.766 102.714 152.004 102.54 152.338 101.817L152.671 100.958L149.888 95.6526C149.417 94.723 149.253 94.5352 148.782 94.4976L148.65 94.4789V93.7559H152.589H152.585Z" fill="white"/>
<path d="M164.097 95.2721L189.995 96.9153L164.097 98.5585C161.853 98.6101 161.848 95.2204 164.097 95.2721Z" fill="white"/>
<path d="M38.7472 97.3242L14 95.681L38.7472 94.0378C41.0003 93.9815 41.0049 97.3805 38.7472 97.3242Z" fill="white"/>
</g>
<defs>
<clipPath id="clip0_183_1726">
<rect width="189" height="78" fill="white"/>
</clipPath>
<clipPath id="clip1_183_1726">
<rect width="176" height="17" fill="white" transform="translate(14 88)"/>
</clipPath>
</defs>
</svg>
