<svg width="251" height="251" viewBox="0 0 251 251" fill="none" xmlns="http://www.w3.org/2000/svg">
<circle cx="125.5" cy="125.5" r="125.5" fill="#161b55"/>
<path fill-rule="evenodd" clip-rule="evenodd" d="M125.2 51C93.079 51 67 77.079 67 109.2C67 123.898 75.7512 141.374 86.5711 156.919C102.121 179.268 121.56 197.696 121.56 197.696C123.602 199.627 126.798 199.627 128.84 197.696C128.84 197.696 148.279 179.268 163.829 156.919C174.649 141.374 183.4 123.898 183.4 109.2C183.4 77.079 157.321 51 125.2 51ZM125.2 80.1001C109.137 80.1001 96.1001 93.1369 96.1001 109.2C96.1001 125.263 109.137 138.3 125.2 138.3C141.263 138.3 154.3 125.263 154.3 109.2C154.3 93.1369 141.263 80.1001 125.2 80.1001Z" fill="white"/>
</svg>
