<svg width="58" height="58" viewBox="0 0 58 58" fill="none" xmlns="http://www.w3.org/2000/svg">
<g filter="url(#filter0_dd_183_1686)">
<rect x="4" y="3" width="50" height="50" rx="25" fill="white"/>
</g>
<path d="M29.4098 34.9375L28.7223 35.625C28.4098 35.9062 27.9411 35.9062 27.6598 35.625L21.5973 29.5312C21.2848 29.25 21.2848 28.7812 21.5973 28.5L27.6598 22.4062C27.9411 22.125 28.4411 22.125 28.7223 22.4062L29.4098 23.0938C29.7223 23.4062 29.6911 23.875 29.4098 24.1875L25.6286 27.75H34.6286C35.0348 27.75 35.3786 28.0938 35.3786 28.5V29.5C35.3786 29.9375 35.0348 30.25 34.6286 30.25H25.6286L29.4098 33.8438C29.6911 34.1562 29.7223 34.625 29.4098 34.9375Z" fill="#979797"/>
<defs>
<filter id="filter0_dd_183_1686" x="0" y="0" width="58" height="59" filterUnits="userSpaceOnUse" color-interpolation-filters="sRGB">
<feFlood flood-opacity="0" result="BackgroundImageFix"/>
<feColorMatrix in="SourceAlpha" type="matrix" values="0 0 0 0 0 0 0 0 0 0 0 0 0 0 0 0 0 0 127 0" result="hardAlpha"/>
<feMorphology radius="1" operator="dilate" in="SourceAlpha" result="effect1_dropShadow_183_1686"/>
<feOffset dy="1"/>
<feGaussianBlur stdDeviation="1.5"/>
<feColorMatrix type="matrix" values="0 0 0 0 0 0 0 0 0 0 0 0 0 0 0 0 0 0 0.15 0"/>
<feBlend mode="normal" in2="BackgroundImageFix" result="effect1_dropShadow_183_1686"/>
<feColorMatrix in="SourceAlpha" type="matrix" values="0 0 0 0 0 0 0 0 0 0 0 0 0 0 0 0 0 0 127 0" result="hardAlpha"/>
<feOffset dy="1"/>
<feGaussianBlur stdDeviation="1"/>
<feColorMatrix type="matrix" values="0 0 0 0 0 0 0 0 0 0 0 0 0 0 0 0 0 0 0.3 0"/>
<feBlend mode="normal" in2="effect1_dropShadow_183_1686" result="effect2_dropShadow_183_1686"/>
<feBlend mode="normal" in="SourceGraphic" in2="effect2_dropShadow_183_1686" result="shape"/>
</filter>
</defs>
</svg>
