<svg width="251" height="251" viewBox="0 0 251 251" fill="none" xmlns="http://www.w3.org/2000/svg">
<circle cx="125.5" cy="125.5" r="125.5" fill="#161b55"/>
<path fill-rule="evenodd" clip-rule="evenodd" d="M192.538 175.699C188.309 188.55 171.741 194.958 159.904 193.89C143.738 192.428 126.147 183.854 112.794 174.41C93.1663 160.527 74.7808 139.053 64.0673 116.265C56.4957 100.163 54.7969 80.3651 66.0584 65.6877C70.2232 60.2624 74.726 57.3649 81.4938 57.027C90.883 56.5703 92.1982 61.9417 95.4223 70.3079C97.8244 76.5643 101.03 82.9463 102.82 89.431C106.172 101.533 94.4541 102.039 92.9745 111.93C92.052 118.168 99.6145 126.534 103.03 130.982C109.725 139.695 117.772 147.21 126.85 152.928C132.047 156.207 140.441 162.115 146.396 158.855C155.566 153.831 154.698 138.369 167.521 143.603C174.161 146.306 180.591 150.208 186.93 153.623C196.73 158.893 196.273 164.355 192.538 175.699C195.333 167.223 189.743 184.175 192.538 175.699Z" fill="white"/>
</svg>
