<svg width="58" height="58" viewBox="0 0 58 58" fill="none" xmlns="http://www.w3.org/2000/svg">
<g filter="url(#filter0_dd_183_1681)">
<rect x="4" y="3" width="50" height="50" rx="25" fill="white"/>
</g>
<path d="M28.3161 23.0938L29.0036 22.4062C29.3161 22.125 29.7848 22.125 30.0661 22.4062L36.1598 28.4688C36.4411 28.7812 36.4411 29.25 36.1598 29.5312L30.0661 35.625C29.7848 35.9062 29.3161 35.9062 29.0036 35.625L28.3161 34.9375C28.0348 34.625 28.0348 34.1562 28.3161 33.8438L32.0973 30.25H23.1286C22.6911 30.25 22.3786 29.9375 22.3786 29.5V28.5C22.3786 28.0938 22.6911 27.75 23.1286 27.75H32.0973L28.3161 24.1875C28.0348 23.875 28.0036 23.4062 28.3161 23.0938Z" fill="#979797"/>
<defs>
<filter id="filter0_dd_183_1681" x="0" y="0" width="58" height="59" filterUnits="userSpaceOnUse" color-interpolation-filters="sRGB">
<feFlood flood-opacity="0" result="BackgroundImageFix"/>
<feColorMatrix in="SourceAlpha" type="matrix" values="0 0 0 0 0 0 0 0 0 0 0 0 0 0 0 0 0 0 127 0" result="hardAlpha"/>
<feMorphology radius="1" operator="dilate" in="SourceAlpha" result="effect1_dropShadow_183_1681"/>
<feOffset dy="1"/>
<feGaussianBlur stdDeviation="1.5"/>
<feColorMatrix type="matrix" values="0 0 0 0 0 0 0 0 0 0 0 0 0 0 0 0 0 0 0.15 0"/>
<feBlend mode="normal" in2="BackgroundImageFix" result="effect1_dropShadow_183_1681"/>
<feColorMatrix in="SourceAlpha" type="matrix" values="0 0 0 0 0 0 0 0 0 0 0 0 0 0 0 0 0 0 127 0" result="hardAlpha"/>
<feOffset dy="1"/>
<feGaussianBlur stdDeviation="1"/>
<feColorMatrix type="matrix" values="0 0 0 0 0 0 0 0 0 0 0 0 0 0 0 0 0 0 0.3 0"/>
<feBlend mode="normal" in2="effect1_dropShadow_183_1681" result="effect2_dropShadow_183_1681"/>
<feBlend mode="normal" in="SourceGraphic" in2="effect2_dropShadow_183_1681" result="shape"/>
</filter>
</defs>
</svg>
