<svg width="20" height="21" viewBox="0 0 20 21" fill="none" xmlns="http://www.w3.org/2000/svg">
<path fill-rule="evenodd" clip-rule="evenodd" d="M12.3 11.5578L17.075 16.3328L15.8333 17.5745L11.0583 12.7995C10.1667 13.4412 9.09167 13.8328 7.91667 13.8328C4.925 13.8328 2.5 11.4078 2.5 8.41618C2.5 5.42451 4.925 2.99951 7.91667 2.99951C10.9083 2.99951 13.3333 5.42451 13.3333 8.41618C13.3333 9.59118 12.9417 10.6662 12.3 11.5578ZM7.91667 4.66618C5.84167 4.66618 4.16667 6.34118 4.16667 8.41618C4.16667 10.4912 5.84167 12.1662 7.91667 12.1662C9.99167 12.1662 11.6667 10.4912 11.6667 8.41618C11.6667 6.34118 9.99167 4.66618 7.91667 4.66618Z" fill="white"/>
</svg>
