<svg width="25" height="25" viewBox="0 0 25 25" fill="none" xmlns="http://www.w3.org/2000/svg">
<path fill-rule="evenodd" clip-rule="evenodd" d="M12.196 24.5969C18.9317 24.5969 24.392 19.0907 24.392 12.2984C24.392 5.5062 18.9317 0 12.196 0C5.46034 0 0 5.5062 0 12.2984C0 19.0907 5.46034 24.5969 12.196 24.5969ZM15.8771 5.88308C16.0464 6.80377 16.5904 7.59393 17.3436 8.08741C17.868 8.43129 18.4933 8.63159 19.1651 8.63159V11.0483C17.9184 11.0483 16.7632 10.6472 15.8202 9.96695V14.8776C15.8202 17.33 13.8353 19.3255 11.3949 19.3255C10.4519 19.3255 9.57733 19.0263 8.8586 18.5192C7.71731 17.714 6.96911 16.3827 6.96911 14.8776C6.96911 12.4253 8.954 10.4298 11.3944 10.4298C11.5972 10.4298 11.7955 10.4469 11.9908 10.4735V12.9404C11.802 12.8811 11.6027 12.8465 11.3944 12.8465C10.2801 12.8465 9.37355 13.7581 9.37355 14.8781C9.37355 15.6583 9.81358 16.336 10.4569 16.6763C10.7376 16.8249 11.0563 16.9098 11.3944 16.9098C12.4832 16.9098 13.3713 16.0393 13.4117 14.9549L13.4157 5.27012H15.8202C15.8202 5.47946 15.8407 5.68428 15.8771 5.88308Z" fill="white"/>
</svg>
