<svg width="26" height="25" viewBox="0 0 26 25" fill="none" xmlns="http://www.w3.org/2000/svg">
<path fill-rule="evenodd" clip-rule="evenodd" d="M12.8747 24.5969C19.6104 24.5969 25.0707 19.0907 25.0707 12.2984C25.0707 5.5062 19.6104 0 12.8747 0C6.13905 0 0.678711 5.5062 0.678711 12.2984C0.678711 19.0907 6.13905 24.5969 12.8747 24.5969ZM18.7981 7.34244C19.421 7.51591 19.9113 8.02604 20.0778 8.6741C20.3804 9.84865 20.3804 12.2988 20.3804 12.2988C20.3804 12.2988 20.3804 14.7489 20.0778 15.9234C19.9113 16.571 19.421 17.0816 18.7981 17.2546C17.6696 17.5693 13.1432 17.5693 13.1432 17.5693C13.1432 17.5693 8.61723 17.5693 7.48822 17.2546C6.86537 17.0816 6.37505 16.5715 6.2086 15.9234C5.90599 14.7493 5.90599 12.2988 5.90599 12.2988C5.90599 12.2988 5.90599 9.84865 6.2086 8.6741C6.37505 8.02604 6.86537 7.51544 7.48822 7.34244C8.61677 7.02776 13.1432 7.02776 13.1432 7.02776C13.1432 7.02776 17.6691 7.02776 18.7981 7.34244ZM15.446 12.2988L11.6627 10.074V14.5235L15.446 12.2988Z" fill="white"/>
</svg>
