<svg width="25" height="25" viewBox="0 0 25 25" fill="none" xmlns="http://www.w3.org/2000/svg">
<path fill-rule="evenodd" clip-rule="evenodd" d="M12.2146 24.5969C18.9502 24.5969 24.4106 19.0907 24.4106 12.2984C24.4106 5.5062 18.9502 0 12.2146 0C5.47889 0 0.0185547 5.5062 0.0185547 12.2984C0.0185547 19.0907 5.47889 24.5969 12.2146 24.5969ZM19.5724 5.27012L14.059 11.2215L20.055 19.3255H15.6448L11.6071 13.8682L6.55187 19.3255H5.24556L11.0273 13.0844L5.24556 5.27012H9.65521L13.4787 10.4376L18.2661 5.27012H19.5724ZM11.6839 12.3751L12.2696 13.153L12.2701 13.1535L16.2601 18.4535H18.2667L13.3768 11.9583L12.7912 11.1804L9.02942 6.18372H7.02281L11.6839 12.3751Z" fill="white"/>
</svg>
