<svg width="20" height="20" viewBox="0 0 20 20" fill="none" xmlns="http://www.w3.org/2000/svg">
<path fill-rule="evenodd" clip-rule="evenodd" d="M10 20C15.5228 20 20 15.5228 20 10C20 4.47715 15.5228 0 10 0C4.47715 0 0 4.47715 0 10C0 15.5228 4.47715 20 10 20ZM12.1976 4.78356C12.3364 5.53218 12.7824 6.17468 13.4 6.57593C13.83 6.85554 14.3427 7.01841 14.8936 7.01841V8.98345C13.8714 8.98345 12.9241 8.65731 12.1509 8.10421V12.0971C12.1509 14.0912 10.5234 15.7137 8.52244 15.7137C7.74924 15.7137 7.03214 15.4704 6.44282 15.0582C5.50704 14.4034 4.89355 13.3209 4.89355 12.0971C4.89355 10.1031 6.52104 8.48056 8.52203 8.48056C8.6883 8.48056 8.85088 8.49444 9.01101 8.51607V10.5219C8.85621 10.4738 8.6928 10.4456 8.52203 10.4456C7.60836 10.4456 6.86505 11.1869 6.86505 12.0976C6.86505 12.7319 7.22585 13.2829 7.75333 13.5597C7.98349 13.6805 8.24477 13.7495 8.52203 13.7495C9.41481 13.7495 10.143 13.0417 10.1761 12.16L10.1794 4.28516H12.1509C12.1509 4.45537 12.1677 4.62191 12.1976 4.78356Z" fill="#0C008B"/>
</svg>
