<svg width="25" height="25" viewBox="0 0 25 25" fill="none" xmlns="http://www.w3.org/2000/svg">
<path d="M12.5534 0C5.81775 0 0.357422 5.52651 0.357422 12.3438C0.357422 18.1331 4.29499 22.9904 9.60722 24.3244V16.1158H7.09223V12.3438H9.60722V10.7189C9.60722 6.51755 11.4854 4.56987 15.5615 4.56987C16.3342 4.56987 17.667 4.72328 18.2124 4.8767V8.29594C17.9249 8.26508 17.4249 8.25009 16.8037 8.25009C14.8036 8.25009 14.0309 9.01718 14.0309 11.0098V12.3438H18.0146L17.3299 16.1158H14.0309V24.5969C20.0696 23.8589 24.7494 18.6542 24.7494 12.3438C24.7494 5.52651 19.2891 0 12.5534 0Z" fill="white"/>
</svg>
