<svg width="251" height="251" viewBox="0 0 251 251" fill="none" xmlns="http://www.w3.org/2000/svg">
<circle cx="125.5" cy="125.5" r="125.5" fill="#161b55"/>
<path fill-rule="evenodd" clip-rule="evenodd" d="M66.228 110.2C64.9695 115.09 64.3 120.217 64.3 125.5C64.3 130.783 64.9695 135.91 66.2281 140.8H95.7045C95.1886 136.001 94.9 130.902 94.9 125.5C94.9 120.098 95.1886 114.999 95.7045 110.2H66.228ZM72.4875 94.9H98.2773C100.611 84.8563 103.881 76.5786 107.198 70.0188C107.816 68.7976 108.435 67.6369 109.049 66.5365C93.4773 70.8718 80.4069 81.2096 72.4875 94.9ZM125.5 68.9268C124.066 71.073 122.464 73.7352 120.852 76.9239C118.438 81.6977 115.987 87.6746 114.047 94.9H136.953C135.013 87.6746 132.562 81.6977 130.148 76.9239C128.536 73.7352 126.934 71.073 125.5 68.9268ZM139.896 110.2H111.104C110.53 114.931 110.2 120.029 110.2 125.5C110.2 130.971 110.53 136.069 111.104 140.8H139.896C140.47 136.069 140.8 130.971 140.8 125.5C140.8 120.029 140.47 114.931 139.896 110.2ZM155.295 140.8C155.812 136.001 156.1 130.902 156.1 125.5C156.1 120.098 155.812 114.999 155.295 110.2H184.772C186.031 115.09 186.7 120.217 186.7 125.5C186.7 130.783 186.031 135.91 184.772 140.8H155.295ZM136.953 156.1H114.047C115.987 163.325 118.438 169.302 120.852 174.076C122.464 177.264 124.066 179.927 125.5 182.073C126.934 179.927 128.536 177.264 130.148 174.076C132.562 169.302 135.013 163.325 136.953 156.1ZM109.049 184.464C108.435 183.363 107.816 182.203 107.198 180.981C103.881 174.422 100.611 166.144 98.2773 156.1H72.4875C80.4069 169.79 93.4773 180.128 109.049 184.464ZM141.951 184.463C142.566 183.363 143.184 182.203 143.802 180.981C147.119 174.422 150.389 166.144 152.723 156.1H178.512C170.593 169.79 157.523 180.128 141.951 184.463ZM178.512 94.9H152.723C150.389 84.8563 147.119 76.5786 143.802 70.0188C143.184 68.7976 142.566 67.6369 141.951 66.5365C157.523 70.8718 170.593 81.2096 178.512 94.9ZM49 125.5C49 83.2502 83.2502 49 125.5 49C167.749 49 202 83.2502 202 125.5C202 167.749 167.749 202 125.5 202C83.2502 202 49 167.749 49 125.5Z" fill="white"/>
</svg>
