<svg width="20" height="20" viewBox="0 0 20 20" fill="none" xmlns="http://www.w3.org/2000/svg">
<path d="M10 0C4.47714 0 0 4.49367 0 10.0369C0 14.7442 3.22857 18.6938 7.58429 19.7785V13.1039H5.52214V10.0369H7.58429V8.71563C7.58429 5.29949 9.12429 3.71581 12.4664 3.71581C13.1 3.71581 14.1929 3.84056 14.64 3.9653V6.74553C14.4043 6.72044 13.9943 6.70825 13.485 6.70825C11.845 6.70825 11.2114 7.33197 11.2114 8.95222V10.0369H14.4779L13.9164 13.1039H11.2114V20C16.1629 19.3999 20 15.1679 20 10.0369C20 4.49367 15.5229 0 10 0Z" fill="#0C008B"/>
</svg>
