<svg width="20" height="20" viewBox="0 0 20 20" fill="none" xmlns="http://www.w3.org/2000/svg">
<path fill-rule="evenodd" clip-rule="evenodd" d="M10 20C15.5228 20 20 15.5228 20 10C20 4.47715 15.5228 0 10 0C4.47715 0 0 4.47715 0 10C0 15.5228 4.47715 20 10 20ZM5.77793 3.91912C6.18615 3.75887 6.65315 3.64959 7.33734 3.61745V3.61653C8.02292 3.58347 8.24149 3.57566 9.98734 3.57245C11.7332 3.56924 11.9536 3.57704 12.6378 3.60643C13.322 3.63582 13.7894 3.74372 14.1986 3.90213C14.622 4.06514 14.981 4.28416 15.3388 4.64093C15.6965 4.9977 15.9169 5.35585 16.0822 5.77829C16.2424 6.18695 16.3513 6.65254 16.3839 7.33808C16.4165 8.02361 16.4238 8.24218 16.4275 9.98793C16.4312 11.7337 16.4238 11.9527 16.394 12.6387C16.3641 13.3224 16.2567 13.7903 16.0983 14.1989C15.9352 14.6223 15.7158 14.9809 15.3594 15.3391C15.0031 15.6972 14.6445 15.9176 14.222 16.0829C13.8133 16.2427 13.3491 16.352 12.663 16.3846C11.977 16.4172 11.7575 16.425 10.0121 16.4282C8.26675 16.4314 8.04634 16.4245 7.36214 16.3947C6.67795 16.3648 6.21003 16.2569 5.80135 16.099C5.37706 15.9351 5.01889 15.716 4.66118 15.3597C4.30347 15.0029 4.0826 14.6448 3.91775 14.2224C3.75749 13.8137 3.64866 13.3467 3.61606 12.663C3.583 11.977 3.57519 11.758 3.57197 10.0127C3.56876 8.26743 3.57519 8.04703 3.6055 7.36287C3.6358 6.67825 3.74279 6.21082 3.90122 5.8017C4.06469 5.37881 4.28418 5.0202 4.64051 4.66251C4.9973 4.30482 5.35547 4.08396 5.77793 3.91912ZM6.21875 15.019C6.44559 15.1063 6.78586 15.2105 7.41265 15.2376C8.09042 15.267 8.29384 15.2739 10.0103 15.2702C11.7268 15.2665 11.9302 15.2596 12.6079 15.2279C13.2338 15.1981 13.5741 15.0925 13.8005 15.0043C14.1003 14.8872 14.3143 14.7481 14.5388 14.5222C14.7634 14.2963 14.903 14.0823 15.0187 13.782C15.1059 13.5547 15.2097 13.2145 15.2373 12.5877C15.2671 11.9105 15.2731 11.7066 15.2699 9.99068C15.2667 8.27478 15.2593 8.07137 15.2272 7.39364C15.1978 6.76687 15.0926 6.42709 15.004 6.20118C14.8865 5.90043 14.7473 5.68691 14.5214 5.46238C14.2955 5.23785 14.0815 5.09872 13.7812 4.98301C13.5548 4.89531 13.2141 4.79154 12.5877 4.76445C11.9095 4.7346 11.7056 4.72817 9.98963 4.73185C8.27364 4.73552 8.07021 4.74195 7.39245 4.77409C6.76611 4.80394 6.42585 4.90908 6.19947 4.9977C5.89962 5.11479 5.68517 5.25392 5.46109 5.47983C5.237 5.70574 5.09741 5.91925 4.98169 6.22001C4.89445 6.44683 4.78975 6.78754 4.76312 7.41384C4.73327 8.09157 4.72684 8.29452 4.73052 10.0109C4.73419 11.7273 4.74108 11.9307 4.77276 12.6079C4.80215 13.2347 4.90822 13.5745 4.99639 13.8013C5.11348 14.1011 5.25262 14.316 5.47854 14.5396C5.70446 14.7633 5.91844 14.9033 6.21875 15.019ZM13.4262 7.33486C13.0001 7.33578 12.6543 6.99095 12.6534 6.56484C12.6529 6.13873 12.9973 5.79298 13.4235 5.79206C13.8496 5.79114 14.1954 6.13598 14.1963 6.56208C14.1972 6.98819 13.8524 7.33394 13.4262 7.33486ZM10.0062 13.3008C8.18318 13.3045 6.70274 11.8296 6.69907 10.0068C6.69539 8.18386 8.17078 6.70305 9.99377 6.69938C11.8168 6.6957 13.2977 8.17101 13.3013 9.9939C13.3045 11.8168 11.8292 13.2971 10.0062 13.3008ZM9.99652 7.85739C8.81273 7.85969 7.85531 8.82119 7.85761 10.0045V10.0054C7.8599 11.1886 8.82145 12.1456 10.0048 12.1433C11.1886 12.141 12.146 11.1795 12.1437 9.99619C12.1414 8.81246 11.1799 7.8551 9.99652 7.85739Z" fill="#0C008B"/>
</svg>
