<svg width="17" height="19" viewBox="0 0 17 19" fill="none" xmlns="http://www.w3.org/2000/svg">
<path d="M14.1143 13.062C13.3709 13.062 12.7029 13.3512 12.2042 13.8177L5.56103 9.9831C5.60808 9.76851 5.64572 9.55392 5.64572 9.33C5.64572 9.10608 5.60808 8.89149 5.56103 8.6769L12.1948 4.84227C12.6935 5.30877 13.3709 5.598 14.1143 5.598C15.6763 5.598 16.9372 4.34778 16.9372 2.799C16.9372 1.25022 15.6763 0 14.1143 0C12.5523 0 11.2914 1.25022 11.2914 2.799C11.2914 3.02292 11.3291 3.24684 11.3761 3.4521L4.7424 7.28673C4.23429 6.82023 3.56621 6.531 2.82286 6.531C1.26088 6.531 0 7.78122 0 9.33C0 10.8788 1.26088 12.129 2.82286 12.129C3.56621 12.129 4.23429 11.8398 4.7424 11.3733L11.3761 15.2172C11.3291 15.4225 11.2914 15.6371 11.2914 15.861C11.2914 17.4098 12.5523 18.66 14.1143 18.66C15.6763 18.66 16.9372 17.4098 16.9372 15.861C16.9372 14.3122 15.6763 13.062 14.1143 13.062Z" fill="white"/>
</svg>
