<svg width="25" height="25" viewBox="0 0 25 25" fill="none" xmlns="http://www.w3.org/2000/svg">
<path fill-rule="evenodd" clip-rule="evenodd" d="M12.5358 24.5969C19.2715 24.5969 24.7318 19.0907 24.7318 12.2984C24.7318 5.5062 19.2715 0 12.5358 0C5.80018 0 0.339844 5.5062 0.339844 12.2984C0.339844 19.0907 5.80018 24.5969 12.5358 24.5969ZM7.38695 4.81988C7.88482 4.6228 8.45437 4.4884 9.28881 4.44887V4.44774C10.1249 4.40708 10.3915 4.39748 12.5207 4.39353C14.65 4.38958 14.9188 4.39918 15.7532 4.43532C16.5877 4.47146 17.1578 4.60417 17.6568 4.79899C18.1731 4.99946 18.6111 5.26882 19.0473 5.7076C19.4836 6.14637 19.7524 6.58684 19.954 7.10636C20.1495 7.60895 20.2822 8.18156 20.322 9.02466C20.3617 9.86776 20.3707 10.1366 20.3752 12.2836C20.3796 14.4306 20.3707 14.6999 20.3343 15.5436C20.2979 16.3844 20.1668 16.9599 19.9736 17.4625C19.7748 17.9831 19.5071 18.4241 19.0725 18.8646C18.638 19.3051 18.2006 19.5761 17.6853 19.7794C17.1869 19.9759 16.6207 20.1103 15.784 20.1504C14.9474 20.1905 14.6797 20.2001 12.551 20.2041C10.4223 20.208 10.1535 20.1996 9.31905 20.1629C8.48461 20.1262 7.91394 19.9935 7.41551 19.7992C6.89804 19.5976 6.46122 19.3282 6.02496 18.89C5.58869 18.4512 5.31932 18.0108 5.11827 17.4913C4.92282 16.9887 4.79009 16.4144 4.75033 15.5735C4.71001 14.7299 4.70049 14.4605 4.69657 12.3141C4.69265 10.1676 4.70049 9.89656 4.73745 9.05515C4.77441 8.21318 4.9049 7.63831 5.09811 7.13516C5.29748 6.61507 5.56517 6.17404 5.99976 5.73414C6.4349 5.29423 6.87172 5.02261 7.38695 4.81988ZM7.92458 18.471C8.20123 18.5783 8.61622 18.7065 9.38066 18.7398C10.2073 18.776 10.4554 18.7844 12.5487 18.7799C14.6421 18.7754 14.8902 18.7669 15.7168 18.728C16.4802 18.6912 16.8951 18.5614 17.1712 18.4529C17.5369 18.3089 17.7979 18.1378 18.0718 17.86C18.3456 17.5822 18.5159 17.319 18.657 16.9497C18.7634 16.6702 18.89 16.2517 18.9236 15.4809C18.96 14.648 18.9672 14.3972 18.9633 12.287C18.9594 10.1767 18.9504 9.92649 18.9112 9.09299C18.8754 8.32217 18.7472 7.90429 18.6391 7.62646C18.4957 7.25658 18.326 6.99399 18.0505 6.71785C17.7749 6.44171 17.514 6.2706 17.1477 6.1283C16.8716 6.02044 16.4561 5.89282 15.6922 5.8595C14.865 5.82279 14.6164 5.81489 12.5235 5.81941C10.4307 5.82392 10.1826 5.83183 9.35602 5.87136C8.59213 5.90807 8.17715 6.03738 7.90106 6.14637C7.53536 6.29037 7.27382 6.46147 7.00053 6.73931C6.72724 7.01714 6.55699 7.27973 6.41586 7.64961C6.30945 7.92857 6.18177 8.34758 6.14928 9.11784C6.11288 9.95134 6.10504 10.2009 6.10952 12.3118C6.114 14.4227 6.1224 14.6728 6.16105 15.5058C6.19689 16.2766 6.32625 16.6945 6.43378 16.9734C6.57659 17.3422 6.74628 17.6065 7.02181 17.8815C7.29735 18.1565 7.55832 18.3287 7.92458 18.471ZM16.7148 9.02071C16.1951 9.02184 15.7734 8.59774 15.7723 8.0737C15.7717 7.54966 16.1917 7.12444 16.7114 7.12331C17.2312 7.12218 17.6529 7.54627 17.654 8.07031C17.6551 8.59436 17.2345 9.01958 16.7148 9.02071ZM12.5437 16.3579C10.3204 16.3624 8.51485 14.5486 8.51037 12.3067C8.50589 10.0648 10.3053 8.24368 12.5286 8.23916C14.7519 8.23464 16.558 10.049 16.5625 12.2909C16.5664 14.5328 14.767 16.3534 12.5437 16.3579ZM12.5319 9.66334C11.0882 9.66616 9.92053 10.8487 9.92333 12.3039V12.305C9.92613 13.7603 11.0988 14.9371 12.542 14.9343C13.9858 14.9315 15.1534 13.749 15.1506 12.2937C15.1478 10.8379 13.9751 9.66052 12.5319 9.66334Z" fill="white"/>
</svg>
