<svg width="20" height="20" viewBox="0 0 20 20" fill="none" xmlns="http://www.w3.org/2000/svg">
<path fill-rule="evenodd" clip-rule="evenodd" d="M10 20C15.5228 20 20 15.5228 20 10C20 4.47715 15.5228 0 10 0C4.47715 0 0 4.47715 0 10C0 15.5228 4.47715 20 10 20ZM16.0323 4.28516L11.5117 9.12428L16.428 15.7137H12.8119L9.50124 11.2764L5.35625 15.7137H4.28516L9.02583 10.639L4.28516 4.28516H7.90081L11.0358 8.48691L14.9612 4.28516H16.0323ZM9.56424 10.0623L10.0444 10.6948L10.0449 10.6953L13.3164 15.0047H14.9617L10.9523 9.7234L10.4721 9.09087L7.38769 5.02801H5.74239L9.56424 10.0623Z" fill="#0C008B"/>
</svg>
