<svg width="20" height="20" viewBox="0 0 20 20" fill="none" xmlns="http://www.w3.org/2000/svg">
<path fill-rule="evenodd" clip-rule="evenodd" d="M10 20C15.5228 20 20 15.5228 20 10C20 4.47715 15.5228 0 10 0C4.47715 0 0 4.47715 0 10C0 15.5228 4.47715 20 10 20ZM14.8571 5.97022C15.3678 6.11128 15.7698 6.52607 15.9063 7.05301C16.1544 8.00805 16.1544 10.0003 16.1544 10.0003C16.1544 10.0003 16.1544 11.9925 15.9063 12.9475C15.7698 13.4741 15.3678 13.8892 14.8571 14.0299C13.9317 14.2858 10.2203 14.2858 10.2203 14.2858C10.2203 14.2858 6.50932 14.2858 5.58361 14.0299C5.07291 13.8892 4.67088 13.4745 4.53439 12.9475C4.28627 11.9928 4.28627 10.0003 4.28627 10.0003C4.28627 10.0003 4.28627 8.00805 4.53439 7.05301C4.67088 6.52607 5.07291 6.1109 5.58361 5.97022C6.50895 5.71436 10.2203 5.71436 10.2203 5.71436C10.2203 5.71436 13.9314 5.71436 14.8571 5.97022ZM12.1085 10.0003L9.00645 8.19131V11.8092L12.1085 10.0003Z" fill="#0C008B"/>
</svg>
